<svg width="575" height="153" viewBox="0 0 575 153" fill="none" xmlns="http://www.w3.org/2000/svg">
<path d="M0.8 17.3H9.8L30.6 56.6L48 17.3H56L25.9 84H17.9L26.4 65.4L0.8 17.3ZM72.8359 17.3V45.9L101.236 17.3H111.236L80.0359 48.4L112.236 84H102.036L74.7359 53.4L72.8359 55.3V84H65.4359V17.3H72.8359ZM158.672 16.41C158.852 16.41 159.422 16.44 160.382 16.5C161.342 16.5 162.452 16.68 163.712 17.04C165.032 17.34 166.412 17.85 167.852 18.57C169.352 19.29 170.702 20.34 171.902 21.72C173.162 23.04 174.182 24.78 174.962 26.94C175.802 29.04 176.222 31.65 176.222 34.77C176.222 37.47 175.742 39.96 174.782 42.24C173.882 44.52 172.622 46.5 171.002 48.18C169.442 49.86 167.582 51.18 165.422 52.14C163.322 53.1 161.072 53.58 158.672 53.58H129.692V84H123.032V47.01H157.052C158.312 47.01 159.662 46.8 161.102 46.38C162.542 45.9 163.892 45.18 165.152 44.22C166.412 43.2 167.462 41.94 168.302 40.44C169.142 38.88 169.562 36.99 169.562 34.77C169.562 32.61 169.142 30.78 168.302 29.28C167.462 27.78 166.412 26.58 165.152 25.68C163.892 24.72 162.542 24.03 161.102 23.61C159.662 23.19 158.312 22.98 157.052 22.98H123.032V16.41H158.672ZM236.921 84L229.121 65.2H200.721L192.721 84H184.521L215.221 14.1L245.121 84H236.921ZM203.621 58.2H226.221L215.021 31.5L203.621 58.2ZM254.528 84V17.3H261.928V77H288.328V17.3H295.728V77H322.128V17.3H329.528V84H254.528ZM381.315 17.3V24.3H354.115V44.1H380.515V51.1H354.115V77H381.315V84H346.715V17.3H381.315ZM402.357 17.3V44.4H436.557V17.3H443.957V84H436.557V51.4H402.357V84H394.957V17.3H402.357ZM507.568 84V33.1L461.168 87V17.3H468.568V68.4L514.968 14.5V84H507.568ZM526.564 84L546.164 54.4C541.631 53.9333 537.898 52.5333 534.964 50.2C531.098 47.0667 529.164 42.5333 529.164 36.6C529.164 31.1333 530.698 26.7 533.764 23.3C537.364 19.3 542.898 17.3 550.364 17.3H565.964V84H558.564V54.8H554.564L535.564 84H526.564ZM558.564 24.3H551.364C546.031 24.3 542.231 25.4667 539.964 27.8C537.831 30.0667 536.764 32.9333 536.764 36.4C536.764 40.3333 538.031 43.3333 540.564 45.4C542.964 47.2667 546.364 48.2 550.764 48.2H558.564V24.3Z" fill="white"/>
<path d="M6.912 112.984H26.4V141.64H30.048V151.72H26.688V145H4.032V151.72H0.672V141.64C1.76 141.672 2.752 141.288 3.648 140.488C4.544 139.656 5.248 138.6 5.76 137.32C6.528 135.368 6.912 132.568 6.912 128.92V112.984ZM10.464 116.344V128.92C10.464 132.856 10.08 135.832 9.312 137.848C8.768 139.288 7.952 140.552 6.864 141.64H22.848V116.344H10.464ZM39.1264 112.984H58.6144V145H55.0624V116.344H42.6784V133.528C42.6784 135.032 42.6624 136.168 42.6304 136.936C42.5984 137.672 42.3424 138.728 41.8624 140.104C41.4144 141.448 40.7264 142.536 39.7984 143.368C38.3584 144.648 36.5344 145.288 34.3264 145.288C33.8144 145.288 33.1744 145.192 32.4064 145V141.64C33.0464 141.832 33.6384 141.928 34.1824 141.928C35.4304 141.928 36.4704 141.512 37.3024 140.68C37.8784 140.104 38.3104 139.288 38.5984 138.232C38.8864 137.144 39.0464 136.232 39.0784 135.496C39.1104 134.76 39.1264 133.624 39.1264 132.088V112.984ZM64.2056 145L73.6136 130.792C71.4376 130.568 69.6456 129.896 68.2376 128.776C66.3816 127.272 65.4536 125.096 65.4536 122.248C65.4536 119.624 66.1896 117.496 67.6616 115.864C69.3896 113.944 72.0456 112.984 75.6296 112.984H83.1176V145H79.5656V130.984H77.6456L68.5256 145H64.2056ZM79.5656 116.344H76.1096C73.5496 116.344 71.7256 116.904 70.6376 118.024C69.6136 119.112 69.1016 120.488 69.1016 122.152C69.1016 124.04 69.7096 125.48 70.9256 126.472C72.0776 127.368 73.7096 127.816 75.8216 127.816H79.5656V116.344ZM118.214 116.344H110.438V145H106.886V116.344H99.1095V112.984H118.214V116.344ZM123.003 112.984H128.763C131.963 112.984 134.411 113.656 136.107 115C138.027 116.472 138.987 118.68 138.987 121.624C138.987 124.376 137.931 126.472 135.819 127.912C137.867 128.424 139.387 129.464 140.379 131.032C141.403 132.568 141.915 134.216 141.915 135.976C141.915 137.416 141.595 138.744 140.955 139.96C140.347 141.176 139.579 142.152 138.651 142.888C136.859 144.296 134.299 145 130.971 145H123.003V112.984ZM126.555 116.344V127.048H129.243C129.723 127.048 130.187 127.032 130.635 127C131.083 126.936 131.611 126.808 132.219 126.616C132.859 126.392 133.403 126.104 133.851 125.752C134.331 125.4 134.731 124.872 135.051 124.168C135.371 123.464 135.531 122.648 135.531 121.72C135.531 120.728 135.339 119.88 134.955 119.176C134.571 118.44 134.139 117.896 133.659 117.544C133.179 117.192 132.603 116.92 131.931 116.728C131.259 116.536 130.747 116.424 130.395 116.392C130.043 116.36 129.691 116.344 129.339 116.344H126.555ZM126.555 130.216V141.64H130.635C133.227 141.64 135.099 141.192 136.251 140.296C137.659 139.272 138.363 137.8 138.363 135.88C138.363 133.736 137.451 132.168 135.627 131.176C134.475 130.536 132.667 130.216 130.203 130.216H126.555ZM175.192 140.824C171.992 143.992 168.056 145.576 163.384 145.576C158.712 145.576 154.76 143.992 151.528 140.824C148.328 137.656 146.728 133.72 146.728 129.016C146.728 124.28 148.344 120.344 151.576 117.208C154.808 114.04 158.744 112.456 163.384 112.456C168.024 112.456 171.96 114.04 175.192 117.208C178.424 120.344 180.04 124.28 180.04 129.016C180.04 133.72 178.424 137.656 175.192 140.824ZM172.6 119.656C170.072 117.096 167 115.816 163.384 115.816C159.768 115.816 156.696 117.096 154.168 119.656C151.64 122.216 150.376 125.336 150.376 129.016C150.376 132.696 151.64 135.816 154.168 138.376C156.696 140.936 159.768 142.216 163.384 142.216C167 142.216 170.072 140.936 172.6 138.376C175.128 135.816 176.392 132.696 176.392 129.016C176.392 125.336 175.128 122.216 172.6 119.656ZM203.174 112.984V116.344H190.118V125.848H202.79V129.208H190.118V141.64H203.174V145H186.566V112.984H203.174ZM209.722 145V112.984H224.314V116.344H213.274V145H209.722ZM254.177 140.824C250.977 143.992 247.041 145.576 242.369 145.576C237.697 145.576 233.745 143.992 230.513 140.824C227.313 137.656 225.713 133.72 225.713 129.016C225.713 124.28 227.329 120.344 230.561 117.208C233.793 114.04 237.729 112.456 242.369 112.456C247.009 112.456 250.945 114.04 254.177 117.208C257.409 120.344 259.025 124.28 259.025 129.016C259.025 133.72 257.409 137.656 254.177 140.824ZM251.585 119.656C249.057 117.096 245.985 115.816 242.369 115.816C238.753 115.816 235.681 117.096 233.153 119.656C230.625 122.216 229.361 125.336 229.361 129.016C229.361 132.696 230.625 135.816 233.153 138.376C235.681 140.936 238.753 142.216 242.369 142.216C245.985 142.216 249.057 140.936 251.585 138.376C254.113 135.816 255.377 132.696 255.377 129.016C255.377 125.336 254.113 122.216 251.585 119.656ZM276.753 112.984H300.273V145H296.721V116.344H280.305V145H276.753V112.984ZM330.806 145V120.568L308.534 146.44V112.984H312.086V137.512L334.358 111.64V145H330.806ZM359.984 112.707C360.07 112.707 360.343 112.721 360.801 112.75C361.26 112.75 361.79 112.836 362.392 113.008C363.023 113.151 363.682 113.395 364.37 113.739C365.087 114.083 365.732 114.585 366.305 115.244C366.907 115.875 367.395 116.706 367.767 117.738C368.169 118.741 368.369 119.988 368.369 121.479C368.369 122.769 368.14 123.959 367.681 125.048C367.251 126.137 366.649 127.083 365.875 127.886C365.13 128.689 364.241 129.319 363.209 129.778C362.206 130.237 361.131 130.466 359.984 130.466H346.138V145H342.956V127.327H359.21C359.812 127.327 360.457 127.227 361.145 127.026C361.833 126.797 362.478 126.453 363.08 125.994C363.682 125.507 364.184 124.905 364.585 124.188C364.987 123.443 365.187 122.54 365.187 121.479C365.187 120.447 364.987 119.573 364.585 118.856C364.184 118.139 363.682 117.566 363.08 117.136C362.478 116.677 361.833 116.348 361.145 116.147C360.457 115.946 359.812 115.846 359.21 115.846H342.956V112.707H359.984ZM400.56 115.624V120.04C399.28 118.76 397.888 117.768 396.384 117.064C394.56 116.232 392.72 115.816 390.864 115.816C387.184 115.816 384.112 117.112 381.648 119.704C379.216 122.264 378 125.416 378 129.16C378 133.192 379.328 136.376 381.984 138.712C384.672 141.048 387.648 142.216 390.912 142.216C392.96 142.216 394.944 141.72 396.864 140.728C398.208 140.056 399.44 139.16 400.56 138.04V142.456C397.648 144.536 394.432 145.576 390.912 145.576C386.176 145.576 382.224 143.992 379.056 140.824C375.92 137.656 374.352 133.752 374.352 129.112C374.352 124.344 375.936 120.376 379.104 117.208C382.304 114.04 386.304 112.456 391.104 112.456C394.624 112.456 397.776 113.512 400.56 115.624ZM429.383 145V120.568L407.111 146.44V112.984H410.663V137.512L432.935 111.64V145H429.383ZM444.742 112.984V125.992H461.158V112.984H464.71V145H461.158V129.352H444.742V145H441.19V112.984H444.742ZM472.971 145V112.984H487.563V116.344H476.523V145H472.971ZM509.941 145L506.197 135.976H492.565L488.725 145H484.789L499.525 111.448L513.877 145H509.941ZM493.957 132.616H504.805L499.429 119.8L493.957 132.616Z" fill="white"/>
</svg>
