<svg width="29" height="29" viewBox="0 0 29 29" fill="none" xmlns="http://www.w3.org/2000/svg">
<path d="M14.0955 6.46043L13.4612 7.07123C13.5433 7.15649 13.6419 7.22431 13.7509 7.27063C13.8598 7.31696 13.977 7.34083 14.0955 7.34083C14.2139 7.34083 14.3311 7.31696 14.4401 7.27063C14.5491 7.22431 14.6476 7.15649 14.7298 7.07123L14.0955 6.46043ZM8.22352 19.2873C8.04283 19.1387 7.81051 19.068 7.57767 19.0907C7.34483 19.1134 7.13054 19.2276 6.98194 19.4083C6.83334 19.589 6.76261 19.8213 6.7853 20.0541C6.80799 20.287 6.92224 20.5013 7.10293 20.6499L8.22352 19.2873ZM2.75095 15.7529C2.80648 15.8544 2.88146 15.9439 2.97161 16.0165C3.06175 16.089 3.1653 16.143 3.27634 16.1755C3.38738 16.208 3.50373 16.2184 3.61875 16.2059C3.73377 16.1934 3.84522 16.1584 3.94672 16.1029C4.04822 16.0474 4.13778 15.9724 4.2103 15.8822C4.28283 15.7921 4.33688 15.6886 4.36939 15.5775C4.40189 15.4665 4.41221 15.3501 4.39974 15.2351C4.38728 15.1201 4.35229 15.0086 4.29675 14.9071L2.75095 15.7529ZM3.2302 10.7325C3.2302 8.20709 4.65736 6.08807 6.60606 5.19653C8.49956 4.33084 11.0438 4.55989 13.4612 7.07123L14.7298 5.8508C11.8637 2.87078 8.53244 2.37861 5.8731 3.59435C3.27248 4.78424 1.46826 7.54695 1.46826 10.7325H3.2302ZM9.98075 22.9051C10.5833 23.3797 11.2294 23.8848 11.8836 24.2677C12.5379 24.6495 13.285 24.9607 14.0955 24.9607V23.1988C13.7313 23.1988 13.3038 23.0578 12.7728 22.7466C12.2407 22.4365 11.6898 22.0089 11.072 21.5214L9.98075 22.9051ZM18.2102 22.9051C19.8852 21.5837 22.0277 20.0708 23.7074 18.1785C25.4188 16.2521 26.7227 13.8641 26.7227 10.7325H24.9607C24.9607 13.3132 23.9036 15.303 22.3906 17.0085C20.846 18.747 18.8997 20.1178 17.1189 21.5214L18.2102 22.9051ZM26.7227 10.7325C26.7227 7.54695 24.9196 4.78424 22.3178 3.59435C19.6585 2.37861 16.3296 2.87078 13.4612 5.84962L14.7298 7.07123C17.1471 4.56106 19.6914 4.33084 21.5849 5.19653C23.5336 6.08807 24.9607 8.20592 24.9607 10.7325H26.7227ZM17.1189 21.5214C16.5011 22.0089 15.9502 22.4365 15.4181 22.7466C14.8872 23.0567 14.4596 23.1988 14.0955 23.1988V24.9607C14.906 24.9607 15.653 24.6495 16.3073 24.2677C16.9627 23.8848 17.6076 23.3797 18.2102 22.9051L17.1189 21.5214ZM11.072 21.5214C10.137 20.785 9.18671 20.0802 8.22352 19.2873L7.10293 20.6499C8.07787 21.4521 9.10918 22.218 9.98075 22.9051L11.0732 21.5214H11.072ZM4.29675 14.9083C3.58917 13.6308 3.2219 12.1929 3.2302 10.7325H1.46826C1.46826 12.6566 1.9616 14.3104 2.75095 15.7529L4.29675 14.9071V14.9083Z" fill="#1C1C1C"/>
</svg>
