<svg width="29" height="29" viewBox="0 0 29 29" fill="none" xmlns="http://www.w3.org/2000/svg">
<path d="M14.4778 11.7462C17.0727 11.7462 19.1763 9.64265 19.1763 7.04774C19.1763 4.45283 17.0727 2.34925 14.4778 2.34925C11.8829 2.34925 9.7793 4.45283 9.7793 7.04774C9.7793 9.64265 11.8829 11.7462 14.4778 11.7462Z" stroke="#1C1C1C" stroke-width="2"/>
<path d="M23.871 21.1432C23.8745 20.9506 23.8745 20.7544 23.8745 20.5559C23.8745 17.637 19.667 15.2701 14.4776 15.2701C9.28807 15.2701 5.08057 17.637 5.08057 20.5559C5.08057 23.4748 5.08057 25.8417 14.4776 25.8417C17.0981 25.8417 18.9881 25.6573 20.3507 25.3284" stroke="#1C1C1C" stroke-width="2" stroke-linecap="round"/>
</svg>
