<svg width="29" height="29" viewBox="0 0 29 29" fill="none" xmlns="http://www.w3.org/2000/svg">
<path d="M23.9463 14.7133C23.258 11.0473 22.915 9.21374 21.6088 8.13074C20.3062 7.04774 18.4409 7.04774 14.7114 7.04774H13.8634C10.1339 7.04774 8.26862 7.04774 6.96361 8.13074C5.65978 9.21374 5.31562 11.0473 4.62729 14.7133C3.66175 19.8688 3.1778 22.4459 4.58735 24.1444C5.99572 25.8417 8.61748 25.8417 13.8622 25.8417H14.7103C19.9549 25.8417 22.5779 25.8417 23.9863 24.1444C24.8038 23.1577 24.9847 21.8774 24.8038 19.9686M10.7623 7.04774V5.87312C10.7623 4.93853 11.1336 4.04222 11.7945 3.38136C12.4553 2.72051 13.3516 2.34925 14.2862 2.34925C15.2208 2.34925 16.1171 2.72051 16.778 3.38136C17.4388 4.04222 17.8101 4.93853 17.8101 5.87312V7.04774" stroke="#1C1C1C" stroke-width="2" stroke-linecap="round"/>
</svg>
