<svg width="48" height="36" viewBox="0 0 48 36" fill="none" xmlns="http://www.w3.org/2000/svg">
<g clip-path="url(#clip0_300_4372)">
<path d="M6.4165 28.9397V7.57272C6.4165 6.83147 6.83426 6.12058 7.57787 5.59644C8.32147 5.07229 9.33002 4.77783 10.3816 4.77783H38.1376C39.1893 4.77783 40.1978 5.07229 40.9414 5.59644C41.685 6.12058 42.1028 6.83147 42.1028 7.57272V21.5472C42.1028 22.2884 41.685 22.9993 40.9414 23.5235C40.1978 24.0476 39.1893 24.3421 38.1376 24.3421H16.252C15.6577 24.3421 13.7326 24.308 13.1969 24.4894C12.6612 24.6708 12.1409 25.1239 11.7694 25.4509L8.53587 29.4623C8.38208 29.5982 8.17219 29.697 7.93523 29.7451C7.69828 29.7932 7.44597 29.7882 7.21322 29.7308C6.98047 29.6734 6.77878 29.5664 6.63604 29.4247C6.49331 29.283 6.41659 29.1135 6.4165 28.9397Z" stroke="#D90000" stroke-width="2"/>
<path d="M19.6421 19.1989C19.6421 19.3889 19.5771 19.5539 19.4471 19.6939C19.3171 19.8239 19.1521 19.8889 18.9521 19.8889H18.5471C18.3571 19.8889 18.1921 19.8239 18.0521 19.6939C17.9221 19.5539 17.8571 19.3889 17.8571 19.1989V15.8989C17.8571 15.7789 17.7921 15.7189 17.6621 15.7189H14.9621C14.8321 15.7189 14.7671 15.7789 14.7671 15.8989V19.1989C14.7671 19.3889 14.6971 19.5539 14.5571 19.6939C14.4271 19.8239 14.2671 19.8889 14.0771 19.8889H13.6571C13.4671 19.8889 13.3021 19.8239 13.1621 19.6939C13.0321 19.5539 12.9671 19.3889 12.9671 19.1989V10.4389C12.9671 10.2389 13.0321 10.0739 13.1621 9.94392C13.3021 9.81392 13.4671 9.74892 13.6571 9.74892H14.0771C14.2671 9.74892 14.4271 9.81392 14.5571 9.94392C14.6971 10.0739 14.7671 10.2389 14.7671 10.4389V13.7239C14.7671 13.8639 14.8321 13.9339 14.9621 13.9339H17.6621C17.7921 13.9339 17.8571 13.8639 17.8571 13.7239V10.4389C17.8571 10.2389 17.9221 10.0739 18.0521 9.94392C18.1921 9.81392 18.3571 9.74892 18.5471 9.74892H18.9521C19.1521 9.74892 19.3171 9.81392 19.4471 9.94392C19.5771 10.0739 19.6421 10.2389 19.6421 10.4389V19.1989ZM27.7326 17.9089C27.7326 18.2689 27.6426 18.5989 27.4626 18.8989C27.2826 19.1989 27.0426 19.4389 26.7426 19.6189C26.4426 19.7989 26.1126 19.8889 25.7526 19.8889H22.8726C22.5126 19.8889 22.1776 19.7989 21.8676 19.6189C21.5676 19.4389 21.3276 19.1989 21.1476 18.8989C20.9676 18.5989 20.8776 18.2689 20.8776 17.9089V11.7439C20.8776 11.3739 20.9676 11.0389 21.1476 10.7389C21.3276 10.4389 21.5676 10.1989 21.8676 10.0189C22.1776 9.83892 22.5126 9.74892 22.8726 9.74892H25.7526C26.1126 9.74892 26.4426 9.83892 26.7426 10.0189C27.0426 10.1989 27.2826 10.4389 27.4626 10.7389C27.6426 11.0389 27.7326 11.3739 27.7326 11.7439V17.9089ZM25.9476 17.9089V11.7439C25.9476 11.6039 25.8826 11.5339 25.7526 11.5339H22.8726C22.8226 11.5339 22.7726 11.5539 22.7226 11.5939C22.6826 11.6339 22.6626 11.6839 22.6626 11.7439V17.9089C22.6626 17.9589 22.6826 18.0089 22.7226 18.0589C22.7726 18.0989 22.8226 18.1189 22.8726 18.1189H25.7526C25.8026 18.1189 25.8476 18.0989 25.8876 18.0589C25.9276 18.0089 25.9476 17.9589 25.9476 17.9089ZM35.6385 10.8439C35.6385 11.0339 35.5735 11.1989 35.4435 11.3389C35.3135 11.4689 35.1485 11.5339 34.9485 11.5339H33.3735C33.2435 11.5339 33.1785 11.5989 33.1785 11.7289V19.1989C33.1785 19.3889 33.1085 19.5539 32.9685 19.6939C32.8385 19.8239 32.6785 19.8889 32.4885 19.8889H32.0985C31.9085 19.8889 31.7435 19.8239 31.6035 19.6939C31.4735 19.5539 31.4085 19.3889 31.4085 19.1989V11.7289C31.4085 11.5989 31.3435 11.5339 31.2135 11.5339H29.6235C29.4335 11.5339 29.2685 11.4689 29.1285 11.3389C28.9985 11.1989 28.9335 11.0339 28.9335 10.8439V10.4389C28.9335 10.2389 28.9985 10.0739 29.1285 9.94392C29.2685 9.81392 29.4335 9.74892 29.6235 9.74892H34.9485C35.1485 9.74892 35.3135 9.81392 35.4435 9.94392C35.5735 10.0739 35.6385 10.2389 35.6385 10.4389V10.8439Z" fill="#D90000"/>
</g>
<defs>
<clipPath id="clip0_300_4372">
<rect width="46.6667" height="35" fill="white" transform="translate(0.92627 0.777832)"/>
</clipPath>
</defs>
</svg>
