<svg width="194" height="42" viewBox="0 0 194 42" fill="none" xmlns="http://www.w3.org/2000/svg">
<path d="M16.58 11.4843C17.0406 11.6505 17.4907 11.8789 17.9303 12.1696C18.3909 12.4603 18.7991 12.8444 19.155 13.322C19.5109 13.7996 19.804 14.3707 20.0342 15.0351C20.2645 15.6996 20.3797 16.4783 20.3797 17.3712C20.3797 18.1602 20.2855 18.8559 20.0971 19.458C19.9296 20.0395 19.7098 20.5482 19.4376 20.9842C19.1655 21.4203 18.8514 21.7941 18.4956 22.1055C18.1606 22.3962 17.8361 22.635 17.5221 22.8219C16.8522 23.2165 16.2242 23.476 15.638 23.6006C15.0727 23.7044 14.7064 23.7563 14.5389 23.7563H3.26562V21.4826H14.4761C14.5599 21.4826 14.7901 21.4514 15.167 21.3892C15.5438 21.3061 15.9415 21.1296 16.3602 20.8597C16.7999 20.5897 17.1871 20.1848 17.5221 19.6449C17.8571 19.0843 18.0245 18.3264 18.0245 17.3712C18.0245 16.416 17.8571 15.6684 17.5221 15.1286C17.1871 14.5679 16.7999 14.1526 16.3602 13.8827C15.9415 13.592 15.5333 13.4155 15.1356 13.3532C14.7587 13.2701 14.5285 13.2286 14.4447 13.2286H3.26562V10.9548H12.6234C12.7071 10.9548 12.927 10.9133 13.2828 10.8303C13.6597 10.7472 14.0469 10.5603 14.4447 10.2696C14.8634 9.9789 15.2298 9.55322 15.5438 8.99257C15.8787 8.43192 16.0462 7.67401 16.0462 6.71882C16.0462 5.74288 15.8683 4.98495 15.5124 4.44507C15.1774 3.88442 14.8006 3.47951 14.3819 3.23033C13.9632 2.96038 13.5759 2.79427 13.22 2.73198C12.8642 2.66968 12.6653 2.63854 12.6234 2.63854H3.26562V0.364788H12.6234C12.6443 0.364788 12.7385 0.375172 12.906 0.395935C13.0735 0.395935 13.2828 0.427082 13.5341 0.48938C13.8062 0.530908 14.0993 0.613966 14.4133 0.738557C14.7483 0.84238 15.0937 0.998116 15.4496 1.20577C15.7636 1.39265 16.0881 1.63144 16.423 1.92215C16.758 2.21286 17.0615 2.57624 17.3337 3.0123C17.6058 3.44836 17.8257 3.96749 17.9931 4.56966C18.1815 5.17183 18.2757 5.88822 18.2757 6.71882C18.2757 7.84012 18.1083 8.80568 17.7733 9.61551C17.4383 10.4046 17.0406 11.0275 16.58 11.4843ZM25.9555 23.7563V0.364788H28.2791V21.4826H41.1539V23.7563H25.9555ZM65.3815 18.1498H53.3232L50.5284 23.7563H47.9849L59.3524 0.395935L70.7199 23.7563H68.1763L65.3815 18.1498ZM64.2825 15.9384L59.3524 5.8467L54.3909 15.9384H64.2825ZM84.7967 23.7563C81.573 23.7563 78.7886 22.6247 76.4438 20.3613C74.1621 18.0356 73.021 15.2739 73.021 12.0761C73.021 8.8576 74.1621 6.0855 76.4438 3.75984C78.7886 1.49647 81.573 0.364788 84.7967 0.364788C87.7485 0.364788 90.3445 1.33035 92.5844 3.26148C92.4798 3.3653 92.3332 3.51066 92.1448 3.69754C91.9564 3.88443 91.7786 4.07131 91.6109 4.25819C91.4435 4.44507 91.2865 4.61118 91.1399 4.75655C91.0143 4.88114 90.9515 4.94343 90.9515 4.94343C90.0722 4.21667 89.1198 3.65602 88.0939 3.26148C87.0891 2.84619 85.99 2.63854 84.7967 2.63854C83.4778 2.63854 82.2742 2.87734 81.1855 3.35492C80.0971 3.81176 79.0816 4.50737 78.1395 5.44178C76.2764 7.33139 75.3447 9.54284 75.3447 12.0761C75.3447 14.5887 76.2764 16.7897 78.1395 18.6793C80.0657 20.5482 82.2846 21.4826 84.7967 21.4826C87.0159 21.4826 88.9732 20.7662 90.6689 19.3334C91.0249 19.6449 91.339 19.9252 91.6109 20.1744C91.8414 20.4028 92.0506 20.6105 92.239 20.7974C92.4274 20.9635 92.5216 21.0362 92.5216 21.0154C90.2607 22.8427 87.6857 23.7563 84.7967 23.7563ZM106.176 11.6401L118.423 23.7563H115.377L103.13 11.6401L115.377 0.364788H118.423L106.176 11.6401ZM100.807 0.364788H103.13V11.6401V23.7563H100.807V0.364788ZM134.75 0.364788H149.917V2.63854H134.75V0.364788ZM137.074 10.9548H147.782V13.2286H137.074V23.7563H134.75V13.2286V10.9548H137.074ZM155.723 23.7563V0.364788H158.046V21.4826H170.921V23.7563H155.723ZM183.722 13.2286V23.7563H181.399V13.2286L171.852 0.364788H174.836L182.592 10.5811L190.254 0.364788H193.3L183.722 13.2286Z" fill="#1C1C1C"/>
<path d="M68.5761 39.6427C68.1298 39.6427 67.7261 39.5419 67.365 39.34C67.0039 39.1317 66.7151 38.8353 66.4985 38.4512C66.2885 38.0606 66.1834 37.5852 66.1834 37.0253C66.1834 36.4655 66.2885 35.9932 66.4985 35.6092C66.7085 35.2185 66.994 34.9224 67.3551 34.7204C67.7163 34.5185 68.1231 34.4177 68.5761 34.4177C69.0684 34.4177 69.5083 34.5283 69.8955 34.7497C70.2894 34.9646 70.5978 35.2705 70.8211 35.6678C71.0443 36.0584 71.1558 36.5109 71.1558 37.0253C71.1558 37.5461 71.0443 38.002 70.8211 38.3926C70.5978 38.7833 70.2894 39.0892 69.8955 39.3107C69.5083 39.5321 69.0684 39.6427 68.5761 39.6427ZM65.9077 41.4886V34.4665H66.5773V36.0096L66.5083 37.0351L66.6068 38.0703V41.4886H65.9077ZM68.5269 39.0275C68.8944 39.0275 69.2227 38.9462 69.5115 38.7833C69.8002 38.6141 70.0302 38.3797 70.2007 38.0801C70.3713 37.7742 70.4567 37.4226 70.4567 37.0253C70.4567 36.6281 70.3713 36.2799 70.2007 35.9803C70.0302 35.6807 69.8002 35.4463 69.5115 35.2771C69.2227 35.1079 68.8944 35.0232 68.5269 35.0232C68.1593 35.0232 67.8278 35.1079 67.5324 35.2771C67.2436 35.4463 67.0137 35.6807 66.8431 35.9803C66.6789 36.2799 66.597 36.6281 66.597 37.0253C66.597 37.4226 66.6789 37.7742 66.8431 38.0801C67.0137 38.3797 67.2436 38.6141 67.5324 38.7833C67.8278 38.9462 68.1593 39.0275 68.5269 39.0275ZM75.8302 39.5939V34.4665H76.5293V39.5939H75.8302ZM76.1847 33.3336C76.0404 33.3336 75.9188 33.2848 75.8203 33.1871C75.7219 33.0894 75.6726 32.9722 75.6726 32.8355C75.6726 32.6988 75.7219 32.5847 75.8203 32.4937C75.9188 32.396 76.0404 32.3472 76.1847 32.3472C76.3292 32.3472 76.4505 32.3928 76.549 32.4839C76.6474 32.575 76.6967 32.689 76.6967 32.8257C76.6967 32.9691 76.6474 33.0894 76.549 33.1871C76.4572 33.2848 76.3358 33.3336 76.1847 33.3336ZM83.9196 39.6427C83.3813 39.6427 82.9087 39.5321 82.5018 39.3107C82.0946 39.0829 81.7763 38.7735 81.5467 38.3829C81.3167 37.9856 81.2021 37.5332 81.2021 37.0253C81.2021 36.5175 81.3104 36.0682 81.527 35.6775C81.75 35.2869 82.052 34.981 82.4328 34.7595C82.82 34.5317 83.2533 34.4177 83.7326 34.4177C84.2182 34.4177 84.6483 34.5283 85.0224 34.7497C85.403 34.9646 85.7018 35.2705 85.9185 35.6678C86.1351 36.0584 86.2434 36.5109 86.2434 37.0253C86.2434 37.0578 86.2399 37.0937 86.2335 37.1328C86.2335 37.1652 86.2335 37.2011 86.2335 37.2402H81.7338V36.7226H85.8594L85.5837 36.9277C85.5837 36.5565 85.5014 36.2276 85.3375 35.9412C85.18 35.6482 84.9634 35.4204 84.6877 35.2576C84.412 35.0947 84.0934 35.0134 83.7326 35.0134C83.3781 35.0134 83.0596 35.0947 82.7775 35.2576C82.4951 35.4204 82.2753 35.6482 82.1178 35.9412C81.9602 36.2342 81.8814 36.5695 81.8814 36.9472V37.0546C81.8814 37.4453 81.9666 37.7903 82.1375 38.0899C82.3147 38.3829 82.5574 38.6141 82.8661 38.7833C83.1812 38.9462 83.5388 39.0275 83.9393 39.0275C84.2544 39.0275 84.5464 38.972 84.8157 38.8614C85.0914 38.7508 85.3277 38.5814 85.5246 38.3536L85.9185 38.8028C85.6885 39.0763 85.3998 39.2845 85.052 39.4279C84.7105 39.5712 84.3332 39.6427 83.9196 39.6427ZM90.9156 39.5939V34.4665H91.5852V35.8631L91.5163 35.6189C91.6605 35.2283 91.9035 34.9321 92.2449 34.7302C92.586 34.5219 93.0094 34.4177 93.5151 34.4177V35.0916C93.4887 35.0916 93.4624 35.0916 93.4363 35.0916C93.4099 35.085 93.3836 35.0818 93.3575 35.0818C92.8125 35.0818 92.3859 35.2478 92.0775 35.5799C91.7688 35.9053 91.6147 36.371 91.6147 36.9765V39.5939H90.9156ZM100.138 39.6427C99.6265 39.6427 99.1669 39.5321 98.76 39.3107C98.3595 39.0829 98.0444 38.7735 97.8147 38.3829C97.5848 37.9856 97.4701 37.5332 97.4701 37.0253C97.4701 36.5109 97.5848 36.0584 97.8147 35.6678C98.0444 35.2771 98.3595 34.9712 98.76 34.7497C99.1669 34.5283 99.6265 34.4177 100.138 34.4177C100.578 34.4177 100.975 34.5024 101.33 34.6716C101.684 34.8408 101.963 35.0947 102.167 35.4334L101.645 35.785C101.468 35.5244 101.248 35.3325 100.985 35.2088C100.723 35.085 100.437 35.0232 100.129 35.0232C99.7609 35.0232 99.4295 35.1079 99.1341 35.2771C98.8388 35.44 98.6056 35.6709 98.4351 35.9705C98.2642 36.2701 98.179 36.6217 98.179 37.0253C98.179 37.4289 98.2642 37.7805 98.4351 38.0801C98.6056 38.3797 98.8388 38.6141 99.1341 38.7833C99.4295 38.9462 99.7609 39.0275 100.129 39.0275C100.437 39.0275 100.723 38.9657 100.985 38.8419C101.248 38.7181 101.468 38.5294 101.645 38.2754L102.167 38.627C101.963 38.9591 101.684 39.213 101.33 39.3888C100.975 39.558 100.578 39.6427 100.138 39.6427ZM106.712 39.5939V34.4665H107.411V39.5939H106.712ZM107.067 33.3336C106.923 33.3336 106.801 33.2848 106.703 33.1871C106.604 33.0894 106.555 32.9722 106.555 32.8355C106.555 32.6988 106.604 32.5847 106.703 32.4937C106.801 32.396 106.923 32.3472 107.067 32.3472C107.211 32.3472 107.333 32.3928 107.431 32.4839C107.53 32.575 107.579 32.689 107.579 32.8257C107.579 32.9691 107.53 33.0894 107.431 33.1871C107.339 33.2848 107.218 33.3336 107.067 33.3336ZM115.245 34.4177C115.665 34.4177 116.033 34.499 116.348 34.6618C116.669 34.8181 116.919 35.0591 117.096 35.3845C117.28 35.71 117.372 36.1202 117.372 36.6151V39.5939H116.673V36.6835C116.673 36.1432 116.535 35.7361 116.259 35.4627C115.99 35.1826 115.609 35.0427 115.117 35.0427C114.749 35.0427 114.428 35.1177 114.152 35.2673C113.883 35.4107 113.673 35.6221 113.522 35.9022C113.377 36.1756 113.305 36.5077 113.305 36.8984V39.5939H112.606V34.4665H113.276V35.8729L113.167 35.6092C113.331 35.2381 113.594 34.9482 113.955 34.74C114.316 34.5251 114.746 34.4177 115.245 34.4177ZM124.715 41.5374C124.242 41.5374 123.789 41.4691 123.356 41.3323C122.923 41.1956 122.572 41.0003 122.303 40.7464L122.657 40.219C122.9 40.4338 123.199 40.603 123.553 40.7268C123.914 40.857 124.295 40.9222 124.695 40.9222C125.352 40.9222 125.834 40.7691 126.143 40.4631C126.451 40.1635 126.606 39.6947 126.606 39.0568V37.7773L126.704 36.8984L126.635 36.0194V34.4665H127.305V38.9689C127.305 39.8544 127.085 40.5022 126.645 40.9124C126.212 41.3292 125.568 41.5374 124.715 41.5374ZM124.587 39.3986C124.095 39.3986 123.652 39.2943 123.258 39.0861C122.864 38.8712 122.552 38.575 122.322 38.1973C122.099 37.8196 121.988 37.3867 121.988 36.8984C121.988 36.41 122.099 35.9803 122.322 35.6092C122.552 35.2315 122.864 34.9385 123.258 34.7302C123.652 34.5219 124.095 34.4177 124.587 34.4177C125.046 34.4177 125.46 34.5122 125.828 34.7009C126.195 34.8896 126.487 35.1697 126.704 35.5408C126.921 35.9119 127.029 36.3644 127.029 36.8984C127.029 37.4323 126.921 37.8848 126.704 38.2559C126.487 38.627 126.195 38.9103 125.828 39.1056C125.46 39.3009 125.046 39.3986 124.587 39.3986ZM124.656 38.7833C125.036 38.7833 125.375 38.7052 125.67 38.5489C125.965 38.386 126.198 38.1648 126.369 37.8848C126.54 37.5984 126.625 37.2695 126.625 36.8984C126.625 36.5272 126.54 36.2018 126.369 35.9217C126.198 35.6416 125.965 35.4236 125.67 35.2673C125.375 35.1045 125.036 35.0232 124.656 35.0232C124.282 35.0232 123.944 35.1045 123.642 35.2673C123.346 35.4236 123.113 35.6416 122.943 35.9217C122.778 36.2018 122.696 36.5272 122.696 36.8984C122.696 37.2695 122.778 37.5984 122.943 37.8848C123.113 38.1648 123.346 38.386 123.642 38.5489C123.944 38.7052 124.282 38.7833 124.656 38.7833Z" fill="#1C1C1C"/>
</svg>
