<svg width="47" height="36" viewBox="0 0 47 36" fill="none" xmlns="http://www.w3.org/2000/svg">
<g clip-path="url(#clip0_300_4318)">
<path d="M5.82373 28.9397V7.57272C5.82373 6.83147 6.24149 6.12058 6.98509 5.59644C7.7287 5.07229 8.73725 4.77783 9.78887 4.77783H37.5449C38.5965 4.77783 39.605 5.07229 40.3486 5.59644C41.0923 6.12058 41.51 6.83147 41.51 7.57272V21.5472C41.51 22.2884 41.0923 22.9993 40.3486 23.5235C39.605 24.0476 38.5965 24.3421 37.5449 24.3421H15.6593C15.065 24.3421 13.1398 24.308 12.6041 24.4894C12.0684 24.6708 11.5481 25.1239 11.1767 25.4509L7.9431 29.4623C7.7893 29.5982 7.57941 29.697 7.34246 29.7451C7.1055 29.7932 6.8532 29.7882 6.62045 29.7308C6.3877 29.6734 6.186 29.5664 6.04327 29.4247C5.90054 29.283 5.82382 29.1135 5.82373 28.9397Z" stroke="#008C16" stroke-width="2"/>
<path d="M17.8455 19.2449C17.8455 19.4222 17.7802 19.5762 17.6495 19.7069C17.5282 19.8282 17.3789 19.8889 17.2015 19.8889H16.7955C16.5435 19.8889 16.3569 19.7816 16.2355 19.5669L13.2535 14.4009C13.2349 14.3636 13.2069 14.3542 13.1695 14.3729C13.1322 14.3822 13.1135 14.4009 13.1135 14.4289V19.2449C13.1135 19.4222 13.0482 19.5762 12.9175 19.7069C12.7962 19.8282 12.6515 19.8889 12.4835 19.8889H12.0915C11.9142 19.8889 11.7602 19.8282 11.6295 19.7069C11.5082 19.5762 11.4475 19.4222 11.4475 19.2449V11.0689C11.4475 10.8822 11.5082 10.7282 11.6295 10.6069C11.7602 10.4856 11.9142 10.4249 12.0915 10.4249H12.4975C12.7495 10.4249 12.9362 10.5322 13.0575 10.7469L16.0395 15.9129C16.0675 15.9502 16.0955 15.9642 16.1235 15.9549C16.1609 15.9456 16.1795 15.9222 16.1795 15.8849V11.0689C16.1795 10.8822 16.2402 10.7282 16.3615 10.6069C16.4922 10.4856 16.6462 10.4249 16.8235 10.4249H17.2015C17.3789 10.4249 17.5282 10.4856 17.6495 10.6069C17.7802 10.7282 17.8455 10.8822 17.8455 11.0689V19.2449ZM25.0564 19.2449C25.0564 19.4222 24.9911 19.5762 24.8604 19.7069C24.7391 19.8282 24.5944 19.8889 24.4264 19.8889H19.6104C19.4424 19.8889 19.2931 19.8282 19.1624 19.7069C19.0411 19.5762 18.9804 19.4222 18.9804 19.2449V11.0689C18.9804 10.8822 19.0411 10.7282 19.1624 10.6069C19.2931 10.4856 19.4424 10.4249 19.6104 10.4249H24.4264C24.5944 10.4249 24.7391 10.4856 24.8604 10.6069C24.9911 10.7282 25.0564 10.8822 25.0564 11.0689V11.4469C25.0564 11.6242 24.9911 11.7782 24.8604 11.9089C24.7391 12.0302 24.5944 12.0909 24.4264 12.0909H20.8144C20.7024 12.0909 20.6464 12.1516 20.6464 12.2729V14.1349C20.6464 14.2656 20.7024 14.3309 20.8144 14.3309H23.9224C24.1091 14.3309 24.2631 14.3916 24.3844 14.5129C24.5057 14.6342 24.5664 14.7836 24.5664 14.9609V15.3529C24.5664 15.5302 24.5057 15.6842 24.3844 15.8149C24.2631 15.9362 24.1091 15.9969 23.9224 15.9969H20.8144C20.7024 15.9969 20.6464 16.0529 20.6464 16.1649V18.0549C20.6464 18.1762 20.7024 18.2369 20.8144 18.2369H24.4264C24.5944 18.2369 24.7391 18.2976 24.8604 18.4189C24.9911 18.5402 25.0564 18.6942 25.0564 18.8809V19.2449ZM35.4398 11.2089L33.5778 19.3849C33.5405 19.5342 33.4611 19.6556 33.3398 19.7489C33.2278 19.8422 33.0972 19.8889 32.9478 19.8889H32.4438C32.3038 19.8889 32.1778 19.8469 32.0658 19.7629C31.9538 19.6789 31.8745 19.5716 31.8278 19.4409L31.7718 19.2589C31.6505 18.8762 31.5105 18.4329 31.3518 17.9289C31.2025 17.4249 31.0438 16.8976 30.8758 16.3469C30.8665 16.3096 30.8432 16.2909 30.8058 16.2909C30.7778 16.2909 30.7592 16.3096 30.7498 16.3469C30.6191 16.7576 30.4931 17.1682 30.3718 17.5789C30.2505 17.9802 30.1385 18.3442 30.0358 18.6709C29.9425 18.9976 29.8632 19.2542 29.7978 19.4409C29.7605 19.5622 29.6811 19.6696 29.5598 19.7629C29.4478 19.8469 29.3218 19.8889 29.1818 19.8889H28.6638C28.5145 19.8889 28.3791 19.8422 28.2578 19.7489C28.1458 19.6556 28.0758 19.5342 28.0478 19.3849L26.1858 11.2089C26.1485 11.0222 26.1858 10.8402 26.2978 10.6629C26.3725 10.5882 26.4518 10.5322 26.5358 10.4949C26.6198 10.4482 26.7131 10.4249 26.8158 10.4249H27.2078C27.3571 10.4249 27.4878 10.4716 27.5998 10.5649C27.7211 10.6582 27.8005 10.7749 27.8378 10.9149L28.9718 15.9829C28.9811 16.0109 29.0045 16.0249 29.0418 16.0249C29.0791 16.0249 29.1071 16.0109 29.1258 15.9829C29.1258 15.9829 29.1538 15.8802 29.2098 15.6749C29.2751 15.4696 29.3591 15.1989 29.4618 14.8629C29.5645 14.5176 29.6811 14.1349 29.8118 13.7149C29.9425 13.2949 30.0731 12.8702 30.2038 12.4409C30.2505 12.3102 30.3251 12.2029 30.4278 12.1189C30.5305 12.0256 30.6565 11.9789 30.8058 11.9789C30.9645 11.9789 31.0951 12.0256 31.1978 12.1189C31.3098 12.2029 31.3845 12.3149 31.4218 12.4549L32.4998 15.9829C32.5185 16.0109 32.5465 16.0249 32.5838 16.0249C32.6212 16.0249 32.6445 16.0109 32.6538 15.9829C32.7752 15.4322 32.8965 14.8862 33.0178 14.3449C33.1392 13.8036 33.2512 13.2996 33.3538 12.8329C33.4658 12.3662 33.5591 11.9649 33.6338 11.6289C33.7085 11.2929 33.7598 11.0549 33.7878 10.9149C33.8251 10.7749 33.8998 10.6582 34.0118 10.5649C34.1332 10.4716 34.2685 10.4249 34.4178 10.4249H34.8098C34.9125 10.4249 35.0058 10.4482 35.0898 10.4949C35.1738 10.5322 35.2485 10.5882 35.3138 10.6629C35.4445 10.8309 35.4865 11.0129 35.4398 11.2089Z" fill="#008C16"/>
</g>
<defs>
<clipPath id="clip0_300_4318">
<rect width="46.6667" height="35" fill="white" transform="translate(0.333496 0.777832)"/>
</clipPath>
</defs>
</svg>
