<svg width="29" height="29" viewBox="0 0 29 29" fill="none" xmlns="http://www.w3.org/2000/svg">
<path d="M14.4778 11.7464C17.0727 11.7464 19.1763 9.64276 19.1763 7.04786C19.1763 4.45295 17.0727 2.34937 14.4778 2.34937C11.8829 2.34937 9.7793 4.45295 9.7793 7.04786C9.7793 9.64276 11.8829 11.7464 14.4778 11.7464Z" stroke="white" stroke-width="2"/>
<path d="M23.871 21.1434C23.8745 20.9507 23.8745 20.7546 23.8745 20.5561C23.8745 17.6371 19.667 15.2703 14.4776 15.2703C9.28807 15.2703 5.08057 17.6371 5.08057 20.5561C5.08057 23.475 5.08057 25.8419 14.4776 25.8419C17.0981 25.8419 18.9881 25.6575 20.3507 25.3286" stroke="white" stroke-width="2" stroke-linecap="round"/>
</svg>
