<svg width="29" height="29" viewBox="0 0 29 29" fill="none" xmlns="http://www.w3.org/2000/svg">
<path d="M23.9463 14.7134C23.258 11.0474 22.915 9.21386 21.6088 8.13086C20.3062 7.04786 18.4409 7.04786 14.7114 7.04786H13.8634C10.1339 7.04786 8.26862 7.04786 6.96361 8.13086C5.65978 9.21386 5.31562 11.0474 4.62729 14.7134C3.66175 19.8689 3.1778 22.446 4.58735 24.1445C5.99572 25.8418 8.61748 25.8418 13.8622 25.8418H14.7103C19.9549 25.8418 22.5779 25.8418 23.9863 24.1445C24.8038 23.1578 24.9847 21.8775 24.8038 19.9687M10.7623 7.04786V5.87323C10.7623 4.93865 11.1336 4.04234 11.7945 3.38148C12.4553 2.72063 13.3516 2.34937 14.2862 2.34937C15.2208 2.34937 16.1171 2.72063 16.778 3.38148C17.4388 4.04234 17.8101 4.93865 17.8101 5.87323V7.04786" stroke="white" stroke-width="2" stroke-linecap="round"/>
</svg>
