<svg width="31" height="31" viewBox="0 0 31 31" fill="none" xmlns="http://www.w3.org/2000/svg">
<path d="M15.8333 7.08488L15.1508 7.7421C15.2392 7.83384 15.3452 7.90681 15.4625 7.95665C15.5797 8.0065 15.7058 8.03219 15.8333 8.03219C15.9607 8.03219 16.0868 8.0065 16.2041 7.95665C16.3213 7.90681 16.4273 7.83384 16.5158 7.7421L15.8333 7.08488ZM9.51509 20.8865C9.32067 20.7267 9.07069 20.6505 8.82016 20.675C8.56962 20.6994 8.33905 20.8223 8.17915 21.0167C8.01926 21.2111 7.94315 21.4611 7.96756 21.7117C7.99198 21.9622 8.11492 22.1928 8.30934 22.3527L9.51509 20.8865ZM3.62663 17.0835C3.68638 17.1927 3.76706 17.2891 3.86405 17.3671C3.96105 17.4452 4.07247 17.5033 4.19194 17.5383C4.31142 17.5733 4.43661 17.5844 4.56038 17.571C4.68414 17.5575 4.80405 17.5199 4.91327 17.4601C5.02248 17.4004 5.11885 17.3197 5.19689 17.2227C5.27492 17.1257 5.33308 17.0143 5.36806 16.8948C5.40303 16.7753 5.41413 16.6502 5.40072 16.5264C5.38731 16.4026 5.34966 16.2827 5.2899 16.1735L3.62663 17.0835ZM4.14229 11.6816C4.14229 8.96428 5.67792 6.68422 7.77471 5.72493C9.8121 4.79344 12.5497 5.0399 15.1508 7.7421L16.5158 6.42892C13.4319 3.22243 9.84749 2.69286 6.98604 4.00099C4.18779 5.28131 2.24646 8.25397 2.24646 11.6816H4.14229ZM11.4059 24.7793C12.0542 25.2899 12.7494 25.8334 13.4534 26.2454C14.1573 26.6562 14.9612 26.9911 15.8333 26.9911V25.0953C15.4415 25.0953 14.9814 24.9436 14.4101 24.6087C13.8376 24.275 13.2448 23.815 12.58 23.2905L11.4059 24.7793ZM20.2607 24.7793C22.063 23.3574 24.3683 21.7296 26.1757 19.6934C28.0172 17.6207 29.4201 15.0512 29.4201 11.6816H27.5242C27.5242 14.4584 26.3867 16.5994 24.7589 18.4346C23.0968 20.3052 21.0026 21.7801 19.0865 23.2905L20.2607 24.7793ZM29.4201 11.6816C29.4201 8.25397 27.48 5.28131 24.6805 4.00099C21.819 2.69286 18.2372 3.22243 15.1508 6.42765L16.5158 7.7421C19.1168 5.04117 21.8544 4.79344 23.8918 5.72493C25.9886 6.68422 27.5242 8.96302 27.5242 11.6816H29.4201ZM19.0865 23.2905C18.4217 23.815 17.8289 24.275 17.2564 24.6087C16.6851 24.9424 16.2251 25.0953 15.8333 25.0953V26.9911C16.7053 26.9911 17.5092 26.6562 18.2132 26.2454C18.9184 25.8334 19.6123 25.2899 20.2607 24.7793L19.0865 23.2905ZM12.58 23.2905C11.574 22.498 10.5515 21.7397 9.51509 20.8865L8.30934 22.3527C9.35836 23.2159 10.4681 24.0399 11.4059 24.7793L12.5813 23.2905H12.58ZM5.2899 16.1748C4.52855 14.8002 4.13336 13.253 4.14229 11.6816H2.24646C2.24646 13.7519 2.77729 15.5314 3.62663 17.0835L5.2899 16.1735V16.1748Z" fill="#D90000"/>
</svg>
