<svg width="29" height="29" viewBox="0 0 29 29" fill="none" xmlns="http://www.w3.org/2000/svg">
<path d="M14.0955 6.46051L13.4612 7.07132C13.5433 7.15658 13.6419 7.2244 13.7509 7.27072C13.8598 7.31704 13.977 7.34091 14.0955 7.34091C14.2139 7.34091 14.3311 7.31704 14.4401 7.27072C14.5491 7.2244 14.6476 7.15658 14.7298 7.07132L14.0955 6.46051ZM8.22352 19.2874C8.04283 19.1388 7.81051 19.0681 7.57767 19.0907C7.34483 19.1134 7.13054 19.2277 6.98194 19.4084C6.83334 19.5891 6.76261 19.8214 6.7853 20.0542C6.80799 20.2871 6.92224 20.5014 7.10293 20.65L8.22352 19.2874ZM2.75095 15.753C2.80648 15.8545 2.88146 15.944 2.97161 16.0165C3.06175 16.0891 3.1653 16.1431 3.27634 16.1756C3.38738 16.2081 3.50373 16.2184 3.61875 16.206C3.73377 16.1935 3.84522 16.1585 3.94672 16.103C4.04822 16.0475 4.13778 15.9725 4.2103 15.8823C4.28283 15.7922 4.33688 15.6886 4.36939 15.5776C4.40189 15.4666 4.41221 15.3502 4.39974 15.2352C4.38728 15.1202 4.35229 15.0087 4.29675 14.9072L2.75095 15.753ZM3.2302 10.7326C3.2302 8.20718 4.65736 6.08816 6.60606 5.19662C8.49956 4.33092 11.0438 4.55997 13.4612 7.07132L14.7298 5.85088C11.8637 2.87086 8.53244 2.3787 5.8731 3.59443C3.27248 4.78432 1.46826 7.54704 1.46826 10.7326H3.2302ZM9.98075 22.9052C10.5833 23.3798 11.2294 23.8849 11.8836 24.2678C12.5379 24.6495 13.285 24.9608 14.0955 24.9608V23.1989C13.7313 23.1989 13.3038 23.0579 12.7728 22.7467C12.2407 22.4366 11.6898 22.009 11.072 21.5215L9.98075 22.9052ZM18.2102 22.9052C19.8852 21.5838 22.0277 20.0709 23.7074 18.1785C25.4188 16.2522 26.7227 13.8642 26.7227 10.7326H24.9607C24.9607 13.3133 23.9036 15.3031 22.3906 17.0086C20.846 18.7471 18.8997 20.1179 17.1189 21.5215L18.2102 22.9052ZM26.7227 10.7326C26.7227 7.54704 24.9196 4.78432 22.3178 3.59443C19.6585 2.3787 16.3296 2.87086 13.4612 5.84971L14.7298 7.07132C17.1471 4.56115 19.6914 4.33092 21.5849 5.19662C23.5336 6.08816 24.9607 8.206 24.9607 10.7326H26.7227ZM17.1189 21.5215C16.5011 22.009 15.9502 22.4366 15.4181 22.7467C14.8872 23.0568 14.4596 23.1989 14.0955 23.1989V24.9608C14.906 24.9608 15.653 24.6495 16.3073 24.2678C16.9627 23.8849 17.6076 23.3798 18.2102 22.9052L17.1189 21.5215ZM11.072 21.5215C10.137 20.785 9.18671 20.0803 8.22352 19.2874L7.10293 20.65C8.07787 21.4522 9.10918 22.2181 9.98075 22.9052L11.0732 21.5215H11.072ZM4.29675 14.9084C3.58917 13.6309 3.2219 12.193 3.2302 10.7326H1.46826C1.46826 12.6566 1.9616 14.3105 2.75095 15.753L4.29675 14.9072V14.9084Z" fill="white"/>
</svg>
