<svg width="66" height="16" viewBox="0 0 66 16" fill="none" xmlns="http://www.w3.org/2000/svg">
<path d="M8.00004 1.33333C6.6815 1.33333 5.39257 1.72432 4.29624 2.45686C3.19991 3.18941 2.34543 4.2306 1.84085 5.44877C1.33626 6.66695 1.20424 8.00739 1.46148 9.3006C1.71871 10.5938 2.35365 11.7817 3.286 12.714C4.21835 13.6464 5.40624 14.2813 6.69944 14.5386C7.99265 14.7958 9.33309 14.6638 10.5513 14.1592C11.7694 13.6546 12.8106 12.8001 13.5432 11.7038C14.2757 10.6075 14.6667 9.31854 14.6667 8C14.6667 7.12452 14.4943 6.25761 14.1592 5.44877C13.8242 4.63993 13.3331 3.90501 12.7141 3.28595C12.095 2.66689 11.3601 2.17583 10.5513 1.8408C9.74243 1.50577 8.87552 1.33333 8.00004 1.33333ZM11.09 5.86666C10.99 6.92066 10.5567 9.47866 10.3347 10.6593C10.2414 11.1593 10.0574 11.326 9.87938 11.3433C9.49204 11.3787 9.19804 11.0873 8.82338 10.8413C8.23604 10.4567 7.90471 10.2173 7.33538 9.84133C6.67738 9.40733 7.10404 9.16933 7.47871 8.77933C7.57738 8.67733 9.28271 7.12599 9.31604 6.98533C9.3206 6.96459 9.32013 6.94306 9.31468 6.92253C9.30923 6.90201 9.29895 6.88308 9.28471 6.86733C9.26437 6.85442 9.24128 6.84649 9.2173 6.84417C9.19333 6.84186 9.16914 6.84522 9.14671 6.854C9.08804 6.86733 8.15071 7.48688 6.33471 8.71266C6.12735 8.87442 5.87477 8.96762 5.61204 8.97933C5.25823 8.93717 4.91041 8.85464 4.57538 8.73333C4.15804 8.6 3.82604 8.52533 3.85471 8.29533C3.86982 8.17533 4.03515 8.05244 4.35071 7.92666C6.29471 7.08222 7.59071 6.524 8.23871 6.252C10.09 5.482 10.4747 5.34799 10.726 5.34399C10.818 5.34217 10.9082 5.36922 10.984 5.42133C11.0372 5.46751 11.071 5.53201 11.0787 5.60199C11.0927 5.68881 11.0965 5.77696 11.09 5.86466" fill="#0088CC"/>
<path d="M23.232 5.34H21.432V12H19.872V5.34H18.072V3.996H23.232V5.34ZM27.0575 10.332L28.4015 10.548C28.3455 10.692 28.2695 10.836 28.1735 10.98C28.0855 11.116 27.9455 11.288 27.7535 11.496C27.5615 11.696 27.3015 11.86 26.9735 11.988C26.6455 12.108 26.2695 12.168 25.8455 12.168C25.0295 12.168 24.3655 11.924 23.8535 11.436C23.3095 10.924 23.0375 10.248 23.0375 9.408C23.0375 8.576 23.3015 7.896 23.8295 7.368C24.3255 6.88 24.9775 6.636 25.7855 6.636C26.6655 6.636 27.3415 6.92 27.8135 7.488C28.2295 7.984 28.4375 8.664 28.4375 9.528V9.648H24.5495C24.5495 10 24.6335 10.292 24.8015 10.524C25.0415 10.852 25.3895 11.016 25.8455 11.016C26.3895 11.016 26.7935 10.788 27.0575 10.332ZM24.5975 8.712H27.0575C27.0015 8.376 26.8535 8.12 26.6135 7.944C26.3815 7.76 26.1175 7.668 25.8215 7.668C25.5335 7.668 25.2695 7.76 25.0295 7.944C24.7975 8.128 24.6535 8.384 24.5975 8.712ZM29.571 3.252H31.035V12H29.571V3.252ZM36.1864 10.332L37.5304 10.548C37.4744 10.692 37.3984 10.836 37.3024 10.98C37.2144 11.116 37.0744 11.288 36.8824 11.496C36.6904 11.696 36.4304 11.86 36.1024 11.988C35.7744 12.108 35.3984 12.168 34.9744 12.168C34.1584 12.168 33.4944 11.924 32.9824 11.436C32.4384 10.924 32.1664 10.248 32.1664 9.408C32.1664 8.576 32.4304 7.896 32.9584 7.368C33.4544 6.88 34.1064 6.636 34.9144 6.636C35.7944 6.636 36.4704 6.92 36.9424 7.488C37.3584 7.984 37.5664 8.664 37.5664 9.528V9.648H33.6784C33.6784 10 33.7624 10.292 33.9304 10.524C34.1704 10.852 34.5184 11.016 34.9744 11.016C35.5184 11.016 35.9224 10.788 36.1864 10.332ZM33.7264 8.712H36.1864C36.1304 8.376 35.9824 8.12 35.7424 7.944C35.5104 7.76 35.2464 7.668 34.9504 7.668C34.6624 7.668 34.3984 7.76 34.1584 7.944C33.9264 8.128 33.7824 8.384 33.7264 8.712ZM42.6599 7.476V6.804H44.1239V11.76C44.1239 12.248 44.0759 12.672 43.9799 13.032C43.8919 13.4 43.6999 13.732 43.4039 14.028C42.9159 14.516 42.2319 14.76 41.3519 14.76C40.5039 14.76 39.8559 14.56 39.4079 14.16C38.9839 13.8 38.7039 13.284 38.5679 12.612H40.1519C40.2159 12.876 40.3359 13.084 40.5119 13.236C40.7119 13.42 41.0079 13.512 41.3999 13.512C41.7599 13.512 42.0559 13.404 42.2879 13.188C42.5359 12.948 42.6599 12.564 42.6599 12.036V11.304C42.2839 11.88 41.7519 12.168 41.0639 12.168C40.3439 12.168 39.7439 11.932 39.2639 11.46C38.7119 10.908 38.4359 10.22 38.4359 9.396C38.4359 8.54 38.7039 7.852 39.2399 7.332C39.7199 6.868 40.3159 6.636 41.0279 6.636C41.7479 6.636 42.2919 6.916 42.6599 7.476ZM41.3879 7.932C40.9959 7.932 40.6719 8.052 40.4159 8.292C40.1039 8.572 39.9479 8.94 39.9479 9.396C39.9479 9.804 40.0759 10.144 40.3319 10.416C40.6119 10.72 40.9639 10.872 41.3879 10.872C41.7719 10.872 42.0959 10.752 42.3599 10.512C42.6719 10.224 42.8279 9.852 42.8279 9.396C42.8279 8.996 42.6879 8.648 42.4079 8.352C42.1359 8.072 41.7959 7.932 41.3879 7.932ZM45.5202 12V6.804H46.9842V7.584C47.1602 7.248 47.3762 7.008 47.6322 6.864C47.8722 6.712 48.1602 6.636 48.4962 6.636C48.6882 6.636 48.8962 6.676 49.1202 6.756L48.9282 8.124C48.7442 7.996 48.5162 7.932 48.2442 7.932C47.8202 7.932 47.4962 8.072 47.2722 8.352C47.0802 8.592 46.9842 8.976 46.9842 9.504V12H45.5202ZM53.7113 7.476V6.804H55.1753V12H53.7113V11.328C53.3193 11.888 52.7873 12.168 52.1152 12.168C51.3313 12.168 50.6913 11.9 50.1953 11.364C49.7073 10.828 49.4633 10.172 49.4633 9.396C49.4633 8.612 49.7033 7.956 50.1833 7.428C50.6633 6.9 51.2833 6.636 52.0433 6.636C52.7953 6.636 53.3513 6.916 53.7113 7.476ZM53.4473 8.352C53.1753 8.072 52.8313 7.932 52.4153 7.932C51.9993 7.932 51.6553 8.072 51.3833 8.352C51.1113 8.632 50.9753 8.98 50.9753 9.396C50.9753 9.812 51.1113 10.164 51.3833 10.452C51.6553 10.732 51.9993 10.872 52.4153 10.872C52.8313 10.872 53.1753 10.732 53.4473 10.452C53.7193 10.164 53.8553 9.812 53.8553 9.396C53.8553 8.98 53.7193 8.632 53.4473 8.352ZM56.571 12V6.804H58.035V7.392C58.435 6.888 58.951 6.636 59.583 6.636C60.359 6.636 60.907 6.952 61.227 7.584C61.619 6.952 62.175 6.636 62.895 6.636C63.503 6.636 63.971 6.848 64.299 7.272C64.451 7.472 64.547 7.68 64.587 7.896C64.635 8.112 64.659 8.392 64.659 8.736V12H63.195V9.168C63.195 8.68 63.115 8.34 62.955 8.148C62.811 7.972 62.611 7.884 62.355 7.884C61.987 7.884 61.719 8.036 61.551 8.34C61.415 8.564 61.347 8.9 61.347 9.348V12H59.883V9.168C59.883 8.68 59.803 8.34 59.643 8.148C59.499 7.972 59.299 7.884 59.043 7.884C58.675 7.884 58.407 8.036 58.239 8.34C58.103 8.564 58.035 8.9 58.035 9.348V12H56.571Z" fill="#0088CC"/>
</svg>
