<svg width="74" height="16" viewBox="0 0 74 16" fill="none" xmlns="http://www.w3.org/2000/svg">
<path d="M10.0487 1.33334H5.95871C2.22137 1.33334 1.33337 2.222 1.33337 5.95134V10.042C1.33337 13.778 2.21537 14.6667 5.95137 14.6667H10.042C13.778 14.6667 14.6667 13.7847 14.6667 10.0487V5.95867C14.6667 2.22134 13.7847 1.33334 10.0487 1.33334ZM12.0974 10.8467H11.1247C10.7567 10.8467 10.646 10.5487 9.98604 9.88867C9.41004 9.33334 9.16671 9.264 9.02071 9.264C8.81937 9.264 8.76404 9.31934 8.76404 9.59734V10.472C8.76404 10.7087 8.68737 10.8473 8.06937 10.8473C7.4696 10.807 6.88799 10.6248 6.37244 10.3157C5.85689 10.0066 5.42215 9.57939 5.10404 9.06934C4.34882 8.12934 3.82334 7.02609 3.56937 5.84734C3.56937 5.70134 3.62471 5.56934 3.90271 5.56934H4.87537C5.12537 5.56934 5.21537 5.68067 5.31271 5.93734C5.78471 7.32667 6.59004 8.53467 6.91671 8.53467C7.04204 8.53467 7.09671 8.47934 7.09671 8.16667V6.736C7.05537 6.08334 6.70871 6.028 6.70871 5.792C6.71316 5.72976 6.74169 5.67169 6.78823 5.63012C6.83478 5.58855 6.89569 5.56675 6.95804 5.56934H8.48604C8.69471 5.56934 8.76404 5.67334 8.76404 5.92334V7.854C8.76404 8.06267 8.85404 8.132 8.91671 8.132C9.04204 8.132 9.13871 8.06267 9.36804 7.83334C9.86062 7.23264 10.2631 6.56339 10.5627 5.84667C10.5933 5.76058 10.6513 5.68687 10.7277 5.6368C10.8042 5.58672 10.8949 5.56303 10.986 5.56934H11.9587C12.25 5.56934 12.312 5.71534 12.25 5.92334C11.8964 6.71562 11.4588 7.4677 10.9447 8.16667C10.84 8.32667 10.798 8.41 10.9447 8.59734C11.0414 8.74334 11.382 9.028 11.6114 9.29867C11.9446 9.6311 12.2214 10.0157 12.4307 10.4373C12.514 10.708 12.3747 10.8467 12.0974 10.8467Z" fill="#0077FF"/>
<path d="M18.912 3.996H20.892C21.764 3.996 22.416 4.164 22.848 4.5C23.344 4.884 23.592 5.436 23.592 6.156C23.592 6.868 23.292 7.392 22.692 7.728C23.1 7.792 23.448 7.96 23.736 8.232C24.12 8.6 24.312 9.1 24.312 9.732C24.312 10.404 24.084 10.944 23.628 11.352C23.14 11.784 22.464 12 21.6 12H18.912V3.996ZM20.472 5.268V7.32H20.916C20.996 7.32 21.068 7.32 21.132 7.32C21.204 7.312 21.304 7.288 21.432 7.248C21.568 7.208 21.68 7.156 21.768 7.092C21.864 7.02 21.948 6.916 22.02 6.78C22.092 6.636 22.128 6.468 22.128 6.276C22.128 5.932 22.016 5.68 21.792 5.52C21.568 5.352 21.28 5.268 20.928 5.268H20.472ZM20.472 8.52V10.728H21.144C21.608 10.728 21.964 10.656 22.212 10.512C22.54 10.32 22.704 10.012 22.704 9.588C22.704 9.156 22.508 8.852 22.116 8.676C21.892 8.572 21.536 8.52 21.048 8.52H20.472ZM27.3158 3.996V7.38L30.2558 3.996H32.2238L28.8398 7.692L32.4038 12H30.3398L27.4958 8.412L27.3158 8.592V12H25.7558V3.996H27.3158ZM33.4057 7.368C33.9337 6.88 34.6337 6.636 35.5057 6.636C36.3777 6.636 37.0777 6.88 37.6057 7.368C38.1897 7.896 38.4817 8.576 38.4817 9.408C38.4817 10.232 38.1897 10.908 37.6057 11.436C37.0777 11.924 36.3777 12.168 35.5057 12.168C34.6337 12.168 33.9337 11.924 33.4057 11.436C32.8217 10.908 32.5297 10.232 32.5297 9.408C32.5297 8.576 32.8217 7.896 33.4057 7.368ZM34.4617 10.44C34.7417 10.728 35.0897 10.872 35.5057 10.872C35.9217 10.872 36.2697 10.728 36.5497 10.44C36.8297 10.152 36.9697 9.808 36.9697 9.408C36.9697 9 36.8297 8.652 36.5497 8.364C36.2697 8.076 35.9217 7.932 35.5057 7.932C35.0897 7.932 34.7417 8.076 34.4617 8.364C34.1817 8.652 34.0417 9 34.0417 9.408C34.0417 9.808 34.1817 10.152 34.4617 10.44ZM39.614 12V6.804H41.078V8.64H43.118V6.804H44.582V12H43.118V9.888H41.078V12H39.614ZM49.6973 8.052H48.2573V12H46.7933V8.052H45.3533V6.804H49.6973V8.052ZM54.4495 7.476V6.804H55.9135V12H54.4495V11.328C54.0575 11.888 53.5255 12.168 52.8535 12.168C52.0695 12.168 51.4295 11.9 50.9335 11.364C50.4455 10.828 50.2015 10.172 50.2015 9.396C50.2015 8.612 50.4415 7.956 50.9215 7.428C51.4015 6.9 52.0215 6.636 52.7815 6.636C53.5335 6.636 54.0895 6.916 54.4495 7.476ZM54.1855 8.352C53.9135 8.072 53.5695 7.932 53.1535 7.932C52.7375 7.932 52.3935 8.072 52.1215 8.352C51.8495 8.632 51.7135 8.98 51.7135 9.396C51.7135 9.812 51.8495 10.164 52.1215 10.452C52.3935 10.732 52.7375 10.872 53.1535 10.872C53.5695 10.872 53.9135 10.732 54.1855 10.452C54.4575 10.164 54.5935 9.812 54.5935 9.396C54.5935 8.98 54.4575 8.632 54.1855 8.352ZM57.3093 6.804H58.7733V8.82L60.7173 6.804H62.5413L60.1893 9.12L62.6613 12H60.7893L58.9893 9.852L58.7733 10.068V12H57.3093V6.804ZM67.0293 8.052H65.5893V12H64.1253V8.052H62.6853V6.804H67.0293V8.052ZM71.5536 10.332L72.8976 10.548C72.8416 10.692 72.7656 10.836 72.6696 10.98C72.5816 11.116 72.4416 11.288 72.2496 11.496C72.0576 11.696 71.7976 11.86 71.4696 11.988C71.1416 12.108 70.7656 12.168 70.3416 12.168C69.5256 12.168 68.8616 11.924 68.3496 11.436C67.8056 10.924 67.5336 10.248 67.5336 9.408C67.5336 8.576 67.7976 7.896 68.3256 7.368C68.8216 6.88 69.4736 6.636 70.2816 6.636C71.1616 6.636 71.8376 6.92 72.3096 7.488C72.7256 7.984 72.9336 8.664 72.9336 9.528V9.648H69.0456C69.0456 10 69.1296 10.292 69.2976 10.524C69.5376 10.852 69.8856 11.016 70.3416 11.016C70.8856 11.016 71.2896 10.788 71.5536 10.332ZM69.0936 8.712H71.5536C71.4976 8.376 71.3496 8.12 71.1096 7.944C70.8776 7.76 70.6136 7.668 70.3176 7.668C70.0296 7.668 69.7656 7.76 69.5256 7.944C69.2936 8.128 69.1496 8.384 69.0936 8.712Z" fill="#0077FF"/>
</svg>
